<svg id="Capa_1" enable-background="new 0 0 512 512" height="512" viewBox="0 0 512 512" width="512" xmlns="http://www.w3.org/2000/svg"><g><path d="m168.294 286.372c8.621 0 16.82-3.733 22.493-10.244 2.721-3.122 2.396-7.86-.727-10.581-3.123-2.722-7.86-2.397-10.582.727-2.824 3.241-6.901 5.099-11.185 5.099s-8.361-1.858-11.185-5.099c-2.722-3.123-7.459-3.448-10.582-.727-3.122 2.721-3.448 7.459-.727 10.581 5.675 6.51 13.873 10.244 22.495 10.244z"/><path d="m307.155 286.372c8.621 0 16.82-3.734 22.493-10.244 2.721-3.123 2.396-7.86-.727-10.582-3.123-2.721-7.86-2.396-10.581.728-2.824 3.24-6.901 5.098-11.185 5.098-4.285 0-8.362-1.858-11.185-5.098-2.721-3.123-7.459-3.448-10.581-.728-3.123 2.722-3.448 7.459-.727 10.582 5.673 6.51 13.871 10.244 22.493 10.244z"/><path d="m237.724 308.072c7.191 0 13.02-6.217 13.02-13.886s-5.829-13.885-13.02-13.885c-7.19 0-13.02 6.217-13.02 13.885 0 7.67 5.83 13.886 13.02 13.886z"/><path d="m491.72 90.458c-.018 0-.036 0-.055 0h-.108c-37.752 0-66.154-35.172-57.708-72.308 2.759-12.13-9.644-22.029-20.796-16.649-26.014 12.549-42.487 39.316-41.967 68.191.346 19.22 8.096 37.352 21.822 51.057 31.396 31.348 82.832 28.475 110.46-6.347 7.699-9.705.753-23.944-11.648-23.944zm-47.475 37.038c-31.504-.52-57.596-26.572-58.163-58.074-.412-22.868 12.535-44.079 33.049-54.196-10.247 46.268 25.049 90.082 72.182 90.232-11.543 14.315-28.667 22.335-47.068 22.038z"/><path d="m462.543 324.615c4.142 0 7.5-3.358 7.5-7.5v-104.228c0-31.892-25.946-57.837-57.837-57.837h-55.746c-32.088-30.072-74.293-46.614-117.795-46.614-40.417 0-66.257-5.263-80.817-9.677-18.521-5.615-38.32 1.229-49.273 17.031-6.735 9.718-14.134 22.632-20.838 39.261h-24.495c-31.892 0-57.837 25.946-57.837 57.837v35.788c0 4.142 3.358 7.5 7.5 7.5s7.5-3.358 7.5-7.5v-35.788c0-23.62 19.217-42.838 42.838-42.838h19.013c-8.743 26.535-13.354 54.497-15.143 82.49-5.879 7.935-9.363 17.746-9.363 28.357 0 27.268 23.009 49.326 50.667 47.638 4.924 13.38 11.915 26.009 20.778 37.392-2.813 2.662-5.255 5.709-7.24 9.062h-37.778c-18.27 0-33.133 14.863-33.133 33.133v10.78c-17.938-5.24-30.639-21.669-30.639-41.088v-99.14c0-4.142-3.358-7.5-7.5-7.5s-7.5 3.358-7.5 7.5v99.14c0 14.506 5.395 28.381 15.192 39.066 8.274 9.024 19.081 15.115 30.914 17.555 1.438 8.545 6.152 15.993 12.81 20.993v49.072c0 4.142 3.358 7.5 7.5 7.5h331.805c4.142 0 7.5-3.358 7.5-7.5v-49.072c6.658-5 11.372-12.447 12.811-20.993 11.833-2.44 22.64-8.531 30.914-17.555 9.797-10.686 15.192-24.559 15.192-39.066v-30.7c0-4.142-3.358-7.5-7.5-7.5s-7.5 3.358-7.5 7.5v30.7c0 19.418-12.701 35.847-30.639 41.088v-10.78c0-18.27-14.863-33.133-33.133-33.133h-37.779c-1.708-2.886-3.754-5.547-6.085-7.93 9.263-11.68 16.519-24.691 21.575-38.518 27.685 1.659 50.599-20.461 50.599-47.643 0-11.681-4.224-22.389-11.216-30.695-5.259-29.135-17.885-56.701-37.664-80.152h41.504c23.621 0 42.838 19.217 42.838 42.838v104.227c.001 4.141 3.359 7.499 7.5 7.499zm-341.64-200.281c7.185-10.366 20.254-14.962 32.592-11.221 15.531 4.709 42.914 10.322 85.169 10.322 70.676 0 131.692 47.107 151.12 113.235-6.836-2.783-14.031-3.847-20.778-3.427-4.278-11.722-10.078-22.719-17.323-32.855-6.06-8.479-10.465-13.786-16.983-17.3-7.679-4.141-16.77-5.074-25.28-2.434-68.07 21.144-77.596-13.284-134.54-9.083-18.454 1.361-35.498 10.645-46.765 25.473-8.137 10.71-14.968 22.882-19.84 36.197-6.079-.374-12.795.494-19.101 2.779 0 0-.001 0-.002 0-1.96.711-4.028 1.624-5.863 2.586 4.057-39.355 15.133-81.863 37.594-114.272zm-17.081 189.26c-17.281-.87-31.074-15.203-31.074-32.696 0-18.145 14.659-31.994 31.005-32.69-5.068 21.076-5.184 43.812.069 65.386zm36.238-107.474c8.665-11.404 21.759-18.544 35.925-19.589 52.225-3.845 64.733 31.167 137.886 8.449 6.352-1.973 13.186-.243 17.784 4.343 1.413 1.382 4.901 5.847 6.21 7.594 33.633 45.07 32.667 107.45-2.708 151.46-5.269-2.44-11.295-3.821-17.397-3.825-.003 0-.005 0-.008 0-14.707 0-28.347 7.853-35.764 20.437h-88.525c-7.329-12.431-20.916-20.437-35.765-20.437-5.235 0-10.658.992-15.886 3.166-35.106-44.141-36.023-106.483-1.752-151.598zm195.613 198.53h-35.843c-4.736 0-8.589-3.853-8.589-8.589 0-14.793 12.068-26.51 26.51-26.51h.001c22.892 0 33.177 27.988 22.011 34.061-1.235.672-2.631 1.038-4.09 1.038zm-160.054 0h-35.843c-4.743 0-8.589-3.86-8.589-8.589 0-14.666 11.964-26.51 26.51-26.51 14.545 0 26.51 11.821 26.51 26.51 0 4.736-3.853 8.589-8.588 8.589zm220.508 57.045v35.305h-316.805v-35.306c.1.009 2.374.358 4.855.358h307.095c2.05.001 3.415-.203 4.855-.357zm-37.307-71.707h32.452c10.015 0 18.134 8.149 18.134 18.133v20.798c0 10.143-8.296 18.134-18.134 18.134h-307.095c-2.373 0-4.847-.479-7.182-1.49-11.964-5.184-10.907-17.494-10.951-17.637v-19.805c0-9.999 8.135-18.133 18.133-18.133h32.452c-.476 3.233-.436 5.958-.441 6.073 0 13.006 10.581 23.588 23.588 23.588h35.843c13.006 0 23.588-10.582 23.588-23.588 0-1.946-.2-4.427-.441-6.073h77.917c-.253 1.725-.441 4.176-.441 6.074 0 13.006 10.582 23.588 23.588 23.588 37.498-.091 36.296.208 39.43-.272 11.208-1.717 19.999-11.406 19.999-23.361-.002-1.935-.203-4.426-.439-6.029zm14.715-76.395c5.121-21.177 5.182-43.957-.002-65.39 17.232.88 31.049 15.175 31.049 32.695 0 17.484-13.778 31.811-31.047 32.695z"/></g></svg>