<svg preserveAspectRatio="none" xmlns="http://www.w3.org/2000/svg" height="300" viewBox="0 0 1250 323"><style>.wave-3-bottom-0{fill:#377dff}</style><path class="wave-3-bottom-0" opacity=".05" d="M1250 322.8s-50.4-39.9-123.7-54.3c-90.3-17.7-210.9-70.1-210.9-70.1S806 129.1 596.6 164c-68.1 11.3-140 7.5-200.6-11.9-42.2-13.5-77.1-32.8-103.7-53.9-15.2-12.1-31.2-24-50.7-34.4-20.6-11.1-43.2-21.3-67.5-30.3C123.6 14.8 63.9 1.3.3 0v322.8H1250z"/><path class="wave-3-bottom-0" opacity=".05" d="M0 73.2s154.1-11.9 305.5 59.2 421.4 27.9 421.4 27.9 236.3-54.7 388.7 82.6c0 0 59.4 42.6 87.4 80.1H0V73.2z"/></svg>